<?xml version="1.0" standalone="no"?><!DOCTYPE svg PUBLIC "-//W3C//DTD SVG 1.1//EN" "http://www.w3.org/Graphics/SVG/1.1/DTD/svg11.dtd"><svg t="1537191630618" class="icon" style="" viewBox="0 0 1109 1024" version="1.1" xmlns="http://www.w3.org/2000/svg" p-id="8041" xmlns:xlink="http://www.w3.org/1999/xlink" width="216.6015625" height="200"><defs><style type="text/css"></style></defs><path d="M1012.920653 469.559212c-15.33242 43.758172-43.523601 85.298581-85.298581 85.298581L294.493352 554.857794 309.207357 661.48102c3.326645 23.542408 19.085558 42.649291 42.649291 42.649291l618.414714 0 0 42.649291L330.532002 746.779601c-35.334937 0-57.960386-27.95661-63.973936-63.973936L181.259485 43.066306 10.662323 43.066306 10.662323 0.417015c0 0 131.317166-0.938284 170.597163 0 27.977935 0.661064 42.649291 42.649291 42.649291 42.649291l11.771204 85.298581L1012.920653 128.364887c59.090592 0 86.620709 24.864536 85.298581 85.298581L1012.920653 469.559212zM1012.920653 171.014178 351.856648 171.014178l-85.298581 0-24.992484 0 47.042168 341.194325L309.207357 512.208503l0 0 597.090069 0c36.550442 0 51.904187-10.790271 63.973936-42.649291l85.298581-234.571098C1063.438737 190.270333 1043.308272 171.014178 1012.920653 171.014178zM426.492906 789.428892c64.784272 0 117.285549 52.501277 117.285549 117.285549S491.277179 1023.999991 426.492906 1023.999991 309.207357 971.498714 309.207357 906.714441 361.708634 789.428892 426.492906 789.428892zM426.492906 981.3507c41.220539 0 74.636259-33.394395 74.636259-74.636259S467.713446 832.078183 426.492906 832.078183 351.856648 865.472577 351.856648 906.714441 385.272367 981.3507 426.492906 981.3507zM874.310458 789.428892c64.784272 0 117.285549 52.501277 117.285549 117.285549S939.09473 1023.999991 874.310458 1023.999991 757.024909 971.498714 757.024909 906.714441 809.526186 789.428892 874.310458 789.428892zM874.310458 981.3507c41.241864 0 74.636259-33.394395 74.636259-74.636259S915.552322 832.078183 874.310458 832.078183 799.674199 865.472577 799.674199 906.714441 833.068594 981.3507 874.310458 981.3507z" p-id="8042" fill="#d81e06"></path></svg>