<?xml version="1.0" standalone="no"?><!DOCTYPE svg PUBLIC "-//W3C//DTD SVG 1.1//EN" "http://www.w3.org/Graphics/SVG/1.1/DTD/svg11.dtd"><svg t="1537191542807" class="icon" style="" viewBox="0 0 1157 1024" version="1.1" xmlns="http://www.w3.org/2000/svg" p-id="4615" xmlns:xlink="http://www.w3.org/1999/xlink" width="225.9765625" height="200"><defs><style type="text/css"></style></defs><path d="M406.67662 0H87.566993c-44.020033 0-79.777407 35.757373-79.777407 79.777407v319.109627c0 44.020033 35.757373 79.777407 79.777407 79.777407h319.109627c44.020033 0 79.777407-35.757373 79.777407-79.777407V79.777407c0-44.020033-35.757373-79.777407-79.777407-79.777407z m0 542.486366H87.566993c-44.020033 0-79.777407 35.757373-79.777407 79.777407v319.109627c0 44.020033 35.757373 79.777407 79.777407 79.777407h319.109627c44.020033 0 79.777407-35.757373 79.777407-79.777407v-319.109627c0-44.020033-35.757373-79.777407-79.777407-79.777407zM631.477956 478.664441h319.109627c44.020033 0 79.777407-35.757373 79.777407-79.777407V79.777407c0-44.020033-35.757373-79.777407-79.777407-79.777407h-319.109627c-44.020033 0-79.777407 35.757373-79.777407 79.777407v319.109627c0 44.020033 35.757373 79.777407 79.777407 79.777407z m394.185865 506.444073l-48.721202-48.721202c34.190317-41.3133 54.846967-94.450751 54.846967-152.289371 0-131.917641-107.41458-239.33222-239.33222-239.33222s-239.33222 107.41458-239.33222 239.33222 107.41458 239.33222 239.33222 239.33222c57.83862 0 110.833612-20.65665 152.289371-54.846967l48.721202 48.721202c4.416249 4.416249 10.257095 6.695604 16.097941 6.695604 5.840846 0 11.681692-2.279354 16.097941-6.695604 4.416249-4.416249 6.695604-10.257095 6.695604-16.097941-0.14246-5.698386-2.136895-11.681692-6.695604-16.097941z m-233.348915-7.265442c-106.844741 0-193.745131-86.90039-193.74513-193.745131s86.90039-193.745131 193.74513-193.745131 193.745131 86.90039 193.745131 193.745131-86.75793 193.745131-193.745131 193.745131z m0 0" fill="#8a8a8a" p-id="4616"></path></svg>