<?xml version="1.0" standalone="no"?><!DOCTYPE svg PUBLIC "-//W3C//DTD SVG 1.1//EN" "http://www.w3.org/Graphics/SVG/1.1/DTD/svg11.dtd"><svg t="1537235872704" class="icon" style="" viewBox="0 0 1024 1024" version="1.1" xmlns="http://www.w3.org/2000/svg" p-id="3925" xmlns:xlink="http://www.w3.org/1999/xlink" width="48" height="48"><defs><style type="text/css"></style></defs><path d="M308.377985 536.755098V384.874786c0-11.870165-9.625523-21.494046-21.495688-21.494046s-21.492404 9.623881-21.492404 21.494046v130.386266h-128.428978c-11.870165 0-21.494046 9.620597-21.494046 21.494046s9.623881 21.495688 21.494046 21.495689h149.923024c11.866881-0.001642 21.494046-9.623881 21.494046-21.495689z" fill="#707070" p-id="3926"></path><path d="M366.301894 264.9564H190.52526c-6.945746 0-13.462925 3.354648-17.495726 9.006481L8.71256 504.193835a21.487478 21.487478 0 0 0-3.999962 12.487565v261.756102c0 11.838967 9.572979 21.44807 21.408661 21.494046l38.344459 0.152708 0.001642 0.088669 0.164202-0.088669 21.67631 0.088669h0.085385c3.469589 0 6.765124-0.843998 9.694488-2.328385 7.4285-3.385846 12.594296-10.868533 12.594296-19.564672 0-0.889975-0.060755-1.766814-0.167486-2.630516 0.142856-1.188823 0.279143-2.410486 0.405579-3.65678 0.371097-0.502458 0.619042-0.960582 0.714279-1.356308 9.453111-39.452822 45.020913-68.861406 87.329209-68.861407 41.396974 0 76.340809 28.160649 86.683895 66.331053 0.366171 1.354667 0.899827 4.315229 1.591118 7.59106a21.469416 21.469416 0 0 0 6.689591 18.127905c-0.075533 0.579633 0.001642 1.001632 0.272575 1.231515a21.45628 21.45628 0 0 0 13.917764 5.114893h60.184971c11.870165 0 21.495688-9.622239 21.495689-21.495688v-492.228433c-0.003284-11.868523-9.627165-21.490762-21.497331-21.490762zM196.966906 658.786765c-61.184961 0-112.829785 41.598943-128.151476 97.999057H47.703975V523.566391l153.88686-215.621899h143.217013v448.682054H325.072406c-15.379162-56.318013-66.981293-97.839781-128.1055-97.839781z" fill="#707070" p-id="3927"></path><path d="M128.877249 801.37981c0 38.337891 31.080161 69.413125 69.414768 69.413125 38.337891 0 69.416409-31.076877 69.416409-69.413125 0-38.339533-31.078519-69.418051-69.416409-69.418051-38.334607 0-69.414767 31.080161-69.414768 69.418051zM758.237368 804.988971c0 38.336249 31.078519 69.413125 69.416409 69.413125 38.336249 0 69.414767-31.078519 69.414768-69.413125 0-38.339533-31.080161-69.418051-69.414768-69.418051-38.337891 0-69.416409 31.081803-69.416409 69.418051z" fill="#707070" p-id="3928"></path><path d="M966.440619 193.543294c-11.824188-0.903111-22.160706 7.962157-23.063817 19.801123-0.903111 11.837325 7.963799 22.165632 19.801123 23.065459 0.036124 0.001642 4.292241 0.651882 8.114865 2.980267 3.43018 2.090292 7.367745 5.8029 7.367745 16.006415v506.761955h-10.786432c-18.397196-59.390233-73.83837-102.657469-139.197347-102.657469-63.519914 0-117.667177 40.86496-137.555327 97.678863H462.143337c-3.08043 0-5.586153-2.541847-5.586153-5.666612V242.135601c0-3.124765 2.505723-5.668254 5.586153-5.668254h73.125733c11.870165 0 21.495688-9.623881 21.495688-21.494046s-9.622239-21.494046-21.495688-21.494046h-73.127375c-26.784636 0-48.575887 21.827376-48.575888 48.656346v509.377694c0 26.827328 21.791252 48.656346 48.575888 48.656346h189.535122c1.760246 0.466334 3.607519 0.717563 5.515546 0.717563h51.107883c11.870165 0 21.494046-9.622239 21.494046-21.495688 0-0.566497-0.029556-1.128068-0.068965-1.683071a102.099182 102.099182 0 0 1 5.538535-15.17391c16.224803-35.397032 51.989648-60.043757 93.407968-60.043757 46.02583 0 85.073073 30.439773 98.079516 72.240684 2.019685 6.49419 1.7389 15.024486 6.305358 20.526896 0.001642 0.006568 0.009852 0.011494 0.01642 0.019705 3.824265 5.937546 10.490868 9.871826 18.07536 9.871826h47.925647c0.182264 0 0.359602-0.011494 0.540225-0.014778 0.17898 0.004926 0.359602 0.014778 0.540225 0.014778 11.870165 0 21.494046-9.623881 21.494046-21.495688V255.396558c0-42.296802-33.017745-60.165267-55.208008-61.853264z" fill="#707070" p-id="3929"></path><path d="M746.907428 517.288947c-52.932167 0-102.660753-20.608997-140.015073-58.032282-37.423285-37.351036-58.03064-87.079622-58.030641-140.013431s20.607355-102.662395 58.030641-140.013431C644.248317 141.804875 693.975261 121.199162 746.907428 121.199162s102.662395 20.605713 140.016715 58.030641c37.421643 37.423285 58.028998 87.153513 58.028998 140.013431 0 52.859918-20.607355 102.662395-58.028998 140.013431-37.424927 37.352678-87.082906 58.032282-140.016715 58.032282z m0-349.492532c-83.513154 0-151.443535 67.932023-151.443535 151.445177 0 83.513154 67.930381 151.445177 151.443535 151.445177 83.511512 0 151.443535-67.932023 151.443535-151.445177 0.001642-83.511512-67.928739-151.445177-151.443535-151.445177z" fill="#707070" p-id="3930"></path><path d="M828.455083 377.490621h-93.197789a23.272354 23.272354 0 0 1-23.298627-23.296984V237.695578c0-12.888218 10.412051-23.300268 23.298627-23.300268s23.298626 10.413693 23.298626 23.300268v93.196148h69.897521a23.273996 23.273996 0 0 1 23.298627 23.300269c0.003284 12.888218-10.408767 23.298626-23.296985 23.298626z" fill="#707070" p-id="3931"></path></svg>