<?xml version="1.0" standalone="no"?><!DOCTYPE svg PUBLIC "-//W3C//DTD SVG 1.1//EN" "http://www.w3.org/Graphics/SVG/1.1/DTD/svg11.dtd"><svg t="1537235830679" class="icon" style="" viewBox="0 0 1051 1024" version="1.1" xmlns="http://www.w3.org/2000/svg" p-id="2844" xmlns:xlink="http://www.w3.org/1999/xlink" width="49.265625" height="48"><defs><style type="text/css"></style></defs><path d="M912.279 283.57h-44.373L400.542 12.733c-0.92-0.525-1.838-1.05-2.889-1.444-12.865-5.12-26.781-4.857-39.253 0.92-12.603 5.776-21.924 16.278-26.519 30.063l-27.175 91.11-55.795-22.58c-1.576-0.657-3.282-1.051-4.858-1.445-26.256-4.07-51.33 13.26-56.45 39.122l-37.941 128.263c-0.657 2.231-0.92 4.463-0.92 6.826h-10.765c-75.355 0-136.664 61.178-136.664 136.534V879.59c0 75.356 61.309 136.664 136.664 136.664H912.28c75.356 0 136.665-61.308 136.665-136.664V420.103c0-75.356-61.31-136.534-136.665-136.534zM375.335 56.056c0.394-1.05 1.05-1.838 2.1-2.363 0.789-0.393 1.445-0.393 2.233-0.393l397.39 230.268H307.594l67.741-227.512z m-143.622 104.37c0.262-0.92 0.525-1.838 0.656-2.757 0.263-1.576 1.576-2.888 3.151-3.282l56.32 22.843-29.67 99.512c-0.656 2.231-0.919 4.594-0.919 6.826h-66.035l36.497-123.142z m771.676 719.294c0 50.281-40.829 91.11-91.11 91.11H137.977c-50.28 0-91.11-40.829-91.11-91.11V420.103c0-50.281 40.83-91.11 91.11-91.11H912.28c50.281 0 91.11 40.829 91.11 91.11V879.72z" fill="#8a8a8a" p-id="2845"></path><path d="M603.897 640.919c-13.784-7.614-36.627-10.765-84.414-11.684-26.65-0.525-43.323-1.182-51.331-6.17-7.746-4.727-8.402-17.46-8.271-38.597 0-14.31 2.888-19.824 15.097-27.832 11.816-8.008 40.698-11.16 60.653-9.321 30.195 2.626 38.203 5.776 41.616 27.57 1.97 12.47 13.654 20.873 25.994 19.035 12.472-1.97 20.874-13.653 19.036-25.994-9.321-59.34-55.139-63.41-82.576-65.903-21.53-1.838-64.723-0.526-90.191 17.066-24.55 16.41-35.053 35.972-35.053 67.742 0 22.712-0.13 57.107 30.064 75.356 17.986 11.29 40.041 12.209 74.306 12.865 48.837 0.92 60.39 4.464 63.934 6.433 7.746 3.807 7.746 24.681 7.746 31.64 0 20.348-4.464 40.303-57.24 40.303-44.373 0-55.532-6.958-57.763-8.534-8.796-6.432-11.947-9.452-14.835-23.368-2.495-12.34-14.441-20.349-26.782-17.854-12.34 2.494-20.349 14.44-17.854 26.781 5.382 26.782 16.016 39.122 32.164 50.938 15.885 12.209 42.141 17.723 85.202 17.723 84.94 0 102.794-46.737 102.794-85.859-0.263-15.753-0.263-56.32-32.296-72.336z" fill="#8a8a8a" p-id="2846"></path><path d="M525.128 403.167c-136.008 0-246.679 110.67-246.679 246.68 0 136.007 110.671 246.678 246.68 246.678 136.007 0 246.678-110.67 246.678-246.679 0-136.008-110.67-246.679-246.679-246.679z m0 447.803c-110.933 0-201.124-90.19-201.124-201.124s90.19-201.124 201.124-201.124 201.124 90.322 201.124 201.124-90.19 201.124-201.124 201.124z" fill="#8a8a8a" p-id="2847"></path></svg>