<?xml version="1.0" standalone="no"?><!DOCTYPE svg PUBLIC "-//W3C//DTD SVG 1.1//EN" "http://www.w3.org/Graphics/SVG/1.1/DTD/svg11.dtd"><svg t="1537191479582" class="icon" style="" viewBox="0 0 1024 1024" version="1.1" xmlns="http://www.w3.org/2000/svg" p-id="2413" xmlns:xlink="http://www.w3.org/1999/xlink" width="200" height="200"><defs><style type="text/css"></style></defs><path d="M918.7423776 567.57872107H809.3777984c-14.06707093 0-25.37589227-11.30882133-25.37589227-25.37589227s11.30882133-25.37589227 25.37589227-25.37589227h109.50249173c16.82531947 0 27.4445792-7.44727253 29.51326614-12.8258592 0.27582507-0.8274752 1.1032992-2.7582496-3.30989867-6.75770986l-406.84175147-370.84659947c-12.27420907-11.1709088-40.27043733-11.1709088-52.5446464 0l-406.8417504 370.98451093c-4.2752864 3.99946133-3.58572373 5.7923232-3.30989866 6.75771094 2.06868693 5.24067307 12.55003413 12.82585813 29.51326613 12.82585813h109.22666667c14.06707093 0 25.37589227 11.30882133 25.37589226 25.37589227s-11.30882133 25.37589227-25.37589226 25.37589226H105.19678827c-35.995152 0-66.0600672-17.7907072-76.8172384-45.0973728-8.5505728-21.92808107-2.48242453-45.37319893 16.2736704-62.47434346l406.8417504-370.984512c31.58195307-28.82370347 89.09144747-28.82370347 120.67340053 0l406.8417504 370.984512c18.75609387 17.10114453 24.96215467 40.5462624 16.2736704 62.47434346-10.34343467 27.16875413-40.5462624 44.95946133-76.5414144 44.95946134z m0 0" p-id="2414" fill="#8a8a8a"></path><path d="M726.90614933 249.69050453v-41.78747413h88.95353494v118.6047136l41.7874752 36.13306453c5.51649813-7.99892267 8.8263968-17.7907072 8.8263968-28.2720544v-127.29319893c0-27.4445792-22.34181867-49.92430933-49.92430934-49.92430933h-90.60848533c-27.0308416 0-49.23474773 21.79016853-49.7863968 48.6830976l50.75178453 43.85616106zM809.791536 665.49656533c-14.06707093 0-25.37589227 11.30882133-25.37589227 25.37589227v215.97090987h-128.81023573V744.2445792c0-70.88700373-64.26720533-128.39649813-143.56686827-128.39649813-79.1617504 0-143.56686827 57.64740693-143.56686826 128.39649813v162.59878827H239.7993472V517.51649813H189.04756373v414.56484907c0 14.06707093 11.30882133 25.37589227 25.3758912 25.37589227h179.14828374c14.06707093 0 25.37589227-11.30882133 25.37589226-25.37589227V744.2445792c0-42.8907744 41.64956267-77.78262613 92.95299627-77.78262613 51.16552213 0 92.95299627 34.89185173 92.95299627 77.78262613v187.836768c0 14.06707093 11.30882133 25.37589227 25.37589226 25.37589227h179.42410774c14.06707093 0 25.23797973-11.30882133 25.65171733-25.23797974v-241.34680213c-0.13791253-14.06707093-11.5846464-25.37589227-25.5138048-25.37589227z" p-id="2415" fill="#8a8a8a"></path></svg>