<?xml version="1.0" standalone="no"?><!DOCTYPE svg PUBLIC "-//W3C//DTD SVG 1.1//EN" "http://www.w3.org/Graphics/SVG/1.1/DTD/svg11.dtd"><svg t="1536928499707" class="icon" style="" viewBox="0 0 1024 1024" version="1.1" xmlns="http://www.w3.org/2000/svg" p-id="2617" xmlns:xlink="http://www.w3.org/1999/xlink" width="200" height="200"><defs><style type="text/css"></style></defs><path d="M432.91976656 991.53207875h-7.18962281c-11.98114312-2.39622844-299.54733187-67.09815281-323.51055656-313.92564094-16.77453844-141.38592844 40.73869969-201.295395 86.26985625-251.61900937 33.54907594-35.94624281 59.90946656-64.70286094 64.70192437-122.21516157 0-16.77453844 14.37830906-31.1528475 31.1528475-33.55001343 16.77453844-2.39622844 33.54907594 9.58585219 38.34153282 26.36038968 0 2.39622844 14.37830906 50.32455187 21.56793375 107.8368525 35.94530531-40.73776219 71.89154719-81.47646187 79.0802325-103.04345718C444.90184719 243.86280031 464.07261406 112.06178656 449.694305 88.09762531c-9.58585219-11.98114312-9.58585219-31.1528475 0-43.13399062s28.75661906-16.77547594 43.13399063-9.58585219c9.58585219 4.79245688 230.05295062 112.63024687 282.77279437 464.89742156 19.17170438-23.96416125 31.1528475-45.53115656 31.1528475-55.11700875 2.39716594-16.77453844 14.37830906-28.75661906 31.1528475-31.1528475 16.77547594-2.39622844 31.1528475 7.18868625 38.34340875 21.56699531 4.79151938 11.98208063 115.02553781 280.376565-16.77547594 414.57380813-124.61139 124.61139-222.86332781 141.38592844-227.65578468 141.3859275-14.37830906 2.39622844-28.75661906-4.79245688-35.94530532-16.7745375-7.18962375-11.98114312-7.18962375-28.75661906 2.39622844-40.73869969 19.17076687-26.35945312 47.92738594-86.26891875 26.35945313-112.62930937-9.58491469-11.98114312-21.56699531-21.56699531-35.94530438-33.54907594-38.34153375-33.54907594-86.26985625-74.28777563-93.45854344-141.38686594-62.305695 38.34247125-115.02647531 83.87362781-117.42270375 112.63024688-9.58585219 69.49438125 19.17170438 131.80101375 71.89154719 165.35008968 14.37830906 9.58491469 21.56699531 28.75661906 14.37830906 43.13399063-4.79245688 14.37924656-16.77453844 23.96416125-31.1528475 23.96416125zM543.1528475 543.41107063c9.58585219 0 16.77453844 2.39622844 23.96416125 9.58491468 11.98114312 9.58585219 14.37830906 23.96416125 9.58491469 38.34247031-21.56699531 64.70192344 7.18962375 95.85477094 59.90946656 141.38592844 14.37830906 11.98114312 28.75661906 26.36039063 43.13492813 40.73869969 28.75661906 31.1528475 31.1528475 74.28683813 21.56793375 112.63024688 31.1528475-19.17170438 69.49438125-45.53209406 110.23307999-88.66702313 59.90946656-59.90946656 47.92738594-174.93594188 26.36039063-256.41240375-23.96416125 31.1528475-50.32455187 57.51323813-62.305695 69.49531875-9.58585219 9.58585219-23.96416125 14.37830906-38.34340875 7.18868625-14.37737156-4.79245688-21.56699531-16.77453844-23.96228625-31.1528475C696.51991906 334.92511438 593.47552437 205.52033 526.37737156 143.21463406c-2.39622844 76.684005-28.75661906 167.74631812-35.94530437 182.12462813-21.56793281 57.51323813-129.40478531 165.35008969-150.97178063 186.91708594-9.58585219 9.58585219-26.36039063 14.37830906-38.34247125 7.18962281-14.37830906-4.79245688-21.56699531-19.17170438-21.56699531-33.54907594 0-16.77453844 0-35.94624281-2.39716594-52.72078031-11.98114312 14.37830906-23.96322375 28.75661906-35.94530437 40.73869969-43.13399063 45.53115656-81.47739938 86.26985625-69.49531875 196.50293718 9.58585219 100.64816625 81.47739938 165.35008969 148.57555125 203.69162344-14.37830906-38.34153375-19.17076687-81.47646187-14.37830906-124.61139 11.98208063-91.06231406 184.52179406-184.52085656 218.0699325-201.295395 7.19056125-2.39622844 11.98301813-4.79245688 19.17170437-4.79245687z" p-id="2618" fill="#1296db"></path></svg>