<?xml version="1.0" standalone="no"?><!DOCTYPE svg PUBLIC "-//W3C//DTD SVG 1.1//EN" "http://www.w3.org/Graphics/SVG/1.1/DTD/svg11.dtd"><svg t="1536928534346" class="icon" style="" viewBox="0 0 1027 1024" version="1.1" xmlns="http://www.w3.org/2000/svg" p-id="3373" xmlns:xlink="http://www.w3.org/1999/xlink" width="200.5859375" height="200"><defs><style type="text/css"></style></defs><path d="M503.060317 426.124868C503.060317 426.124868 503.331217 426.124868 503.060317 426.124868c0-1.354497-0.270899-2.167196-0.270899-2.708995C503.060317 424.228571 503.060317 425.312169 503.060317 426.124868L503.060317 426.124868zM697.295238 637.968254 697.295238 637.968254C697.024339 637.968254 697.024339 637.968254 697.295238 637.968254 697.024339 637.968254 697.024339 637.968254 697.295238 637.968254L697.295238 637.968254zM702.171429 638.780952c-1.083598-0.270899-3.792593 0.270899-4.87619-0.541799C696.48254 640.406349 697.566138 641.219048 702.171429 638.780952L702.171429 638.780952zM513.083598 6.772487C234.057143 6.772487 7.856085 232.973545 7.856085 512c0 279.026455 226.201058 505.227513 505.227513 505.227513 279.026455 0 505.227513-226.201058 505.227513-505.227513C1018.311111 232.973545 792.110053 6.772487 513.083598 6.772487L513.083598 6.772487zM835.724868 204.258201c-17.337566 0.541799-29.528042 0.541799-43.614815 10.29418-5.688889 3.792593-9.481481 8.939683-16.524868 11.106878-6.501587 1.896296-13.274074 0.270899-19.775661 2.438095-23.026455 7.856085-19.233862 56.888889-49.574603 49.574603-14.086772-3.521693-24.110053-20.31746-31.424339-31.153439-6.230688-9.752381-17.879365-17.608466-10.02328-29.798942-3.521693 0.812698-7.314286-0.270899-10.835979 0.541799 4.87619-10.565079 21.130159-9.752381 23.839153-15.17037 6.772487-13.544974-18.421164-14.899471-25.73545-17.066667 8.668783-9.210582 13.003175 2.979894 21.401058 1.083598 8.126984-1.896296-4.334392-12.732275-9.210582-14.086772-1.896296-0.541799-30.61164 7.856085-13.815873-7.043386-20.58836-13.003175-41.17672-26.277249-61.765079-39.280423-3.521693 14.628571 27.360847 22.755556 37.384127 27.902646-1.625397 5.959788-10.835979 14.899471-18.150265 12.190476-6.772487-2.438095-4.063492-13.544974-14.357672-12.461376-7.314286 17.066667 15.44127 11.919577 17.608466 22.484656 2.438095 11.919577-8.668783 6.772487-12.732275 6.501587-1.083598 0-8.939683-8.126984-9.210582-1.896296-0.541799 7.314286 12.461376 4.605291 13.544974 11.919577-15.17037 0.541799-23.026455-4.87619-35.487831-13.003175-14.357672-9.752381-21.942857-8.668783-39.551323-8.668783 5.417989-2.167196 12.461376-3.792593 17.066667-7.314286 2.438095-1.896296 12.190476-11.377778 12.732275-13.544974 2.708995-9.210582-0.270899-8.397884-8.939683-14.357672-7.856085-5.417989-17.066667-14.899471-26.548148-16.524868-33.862434-6.772487-10.565079 30.61164-36.300529 35.75873 0.541799 0 0.812698 0 1.354497 0l-1.354497 0c0 0 0 0 0.270899 0-5.959788-0.270899-17.066667-1.625397-20.859259 1.625397-2.708995 2.167196-2.979894 11.106878-5.959788 14.357672-5.417989 5.688889-13.544974 7.043386-19.775661 11.106878-6.230688 4.063492-20.046561 14.357672-23.839153 21.401058-13.544974 26.006349 30.61164 34.133333 47.407407 41.718519 7.585185 3.521693 29.798942 8.126984 33.862434 13.815873 5.417989 7.585185-4.87619 14.899471 6.772487 20.31746 3.792593 1.625397 11.377778 2.167196 14.357672-1.625397 5.14709-5.688889-2.167196-7.043386-3.250794-13.815873-2.438095-13.003175 1.625397-7.856085 8.126984-12.732275 13.274074-9.752381 10.29418-10.29418 5.417989-26.006349-2.167196-7.314286-10.565079-27.631746-3.250794-32.778836 9.481481-7.043386 30.069841 3.792593 37.384127 4.605291 8.668783 1.083598 13.544974 13.003175 18.150265 17.879365 2.979894 3.250794 8.668783 10.02328 14.086772 9.210582 8.668783-1.083598 4.87619-8.668783 10.02328-12.190476 13.274074-9.210582 16.795767 3.250794 22.213757 15.983069 4.87619 11.919577 9.752381 16.253968 18.692063 23.839153 4.063492 3.521693 22.213757 16.253968 20.58836 23.839153-1.083598 5.14709-21.942857 13.274074-27.360847 14.899471-20.31746 6.501587-58.243386-10.565079-62.306878 21.671958 7.856085-2.979894 30.340741-21.130159 36.842328-12.461376 2.979894 3.792593-2.438095 9.752381-1.083598 13.544974 3.792593 11.648677 12.732275 7.585185 22.213757 5.688889-0.541799 0.270899-1.354497 0.812698-1.896296 1.083598 13.003175-6.772487 11.648677-5.14709 17.608466-15.983069 1.896296-3.521693 4.87619-11.919577 7.585185-14.628571 9.481481-8.668783 10.835979-2.708995 16.795767 4.063492 1.625397 1.896296 15.983069 22.484656 10.835979 21.401058-16.795767-3.250794-32.778836-2.979894-46.594709 6.230688-8.126984 5.417989-15.44127 12.461376-25.193651 15.983069-2.167196 0.812698-19.233862 2.438095-17.337566-0.541799 2.979894-4.334392 13.003175-7.043386 17.066667-11.648677-11.106878-4.605291-20.31746 5.417989-28.986243 11.377778-9.210582 4.334392-11.377778 12.461376-19.233862 19.504762-3.521693 2.979894-9.752381 3.521693-13.274074 7.585185-3.250794 4.063492-3.521693 10.29418-6.772487 13.815873-2.167196 2.708995-7.585185 1.083598-10.02328 4.87619-2.979894 5.14709 2.708995 10.02328 1.354497 13.815873-2.167196 6.772487-15.17037 12.461376-20.046561 17.337566 0.541799-0.541799 1.354497-1.354497 1.896296-1.896296-4.87619 5.14709-11.377778 8.939683-15.17037 15.17037 1.896296 8.397884 7.314286 28.715344 5.959788 33.591534-5.14709 15.44127-15.17037-8.397884-19.233862-14.357672-14.086772-21.130159-41.989418-7.043386-60.952381-5.14709-24.380952 2.167196-48.220106 33.862434-33.320635 59.597884 7.314286 12.190476 19.504762 17.066667 33.320635 14.357672 12.461376-2.438095 16.253968-19.775661 27.902646-20.31746 21.401058-0.541799 0.541799 21.130159-1.354497 28.986243-1.625397 7.314286 2.708995 8.126984 10.29418 9.752381 5.688889 1.354497 13.544974-2.438095 18.421164 0.812698 2.979894 1.896296 2.979894 13.003175 7.043386 9.481481-8.397884 6.772487-6.230688 23.026455 2.167196 28.986243 9.481481 6.501587 20.31746 0.541799 30.340741 2.979894 18.421164 4.605291 9.752381-1.354497 26.006349-11.377778 11.106878-6.501587 12.732275 1.354497 20.31746 1.354497 5.14709 0 8.397884-7.314286 16.795767-5.14709 7.043386 1.625397 9.752381 7.043386 18.150265 8.397884 3.521693 0.541799 7.043386-1.354497 10.29418-0.812698 15.44127 1.625397 27.089947 11.648677 39.280423 20.31746 10.02328 7.314286 16.524868 5.959788 28.173545 9.210582 8.397884 2.438095 24.380952 14.899471 23.568254 25.73545 0 1.896296-7.585185 11.648677-8.939683 15.983069 2.167196 1.625397 17.337566-1.896296 21.942857-2.167196-1.354497 1.625397-11.919577 8.939683-11.919577 5.14709 0 1.896296 7.314286 5.959788 9.210582 7.314286 5.417989-17.608466 14.357672-6.230688 24.922751-1.896296 8.939683 3.792593 20.31746 3.792593 29.798942 6.230688 8.126984 1.896296 26.277249 7.585185 32.507937 14.086772 7.314286 8.126984 2.167196 21.130159-3.250794 29.257143-7.043386 10.565079-17.879365 14.628571-22.213757 27.089947-3.521693 9.752381-0.812698 19.775661-2.979894 30.61164-2.708995 14.628571-4.87619 9.481481-14.357672 18.421164-7.856085 7.585185-0.270899 6.230688-11.106878 11.106878-10.835979 4.87619-20.58836 3.521693-28.173545 15.44127 0.270899-0.812698 0.541799-1.625397 0.812698-2.167196-3.250794 4.605291-4.87619 13.544974-6.230688 16.524868-3.792593 7.585185-8.939683 12.461376-15.17037 18.962963-2.438095 2.438095-23.568254 31.424339-24.651852 28.986243-1.625397-2.979894-18.421164 2.979894-19.233862-1.354497 0.541799 3.521693-0.270899 2.438095 4.063492 4.605291-3.792593 23.839153-13.815873 27.360847-37.384127 27.631746 1.896296 11.377778-8.397884 9.210582-13.274074 15.44127-2.979894 3.521693-4.334392 13.815873-6.230688 18.421164-1.354497 2.979894-10.29418 14.628571-10.29418 17.066667 0 2.167196 2.979894 5.14709 5.959788 8.397884-16.524868 3.250794-33.320635 5.417989-50.387302 7.043386 3.250794-4.063492 4.063492-7.585185-6.230688-8.126984 2.708995-7.314286 9.210582-11.648677 11.919577-18.692063 1.354497-3.521693 0.270899-4.605291 1.354497-8.126984 3.792593-11.648677 2.167196-7.314286 0-16.253968-4.87619-21.130159 1.625397-26.819048 7.585185-46.32381 5.959788-19.775661 5.417989-45.511111 9.210582-66.912169 1.896296-10.29418 4.605291-31.424339 1.083598-41.17672-4.063492-10.835979-21.671958-19.504762-29.798942-26.819048-11.377778-10.29418-17.608466-21.671958-26.006349-34.404233-4.334392-6.501587-9.210582-13.003175-12.461376-20.046561-7.314286-15.17037 0-6.230688 1.083598-15.17037 1.083598-8.668783-1.083598-16.253968 2.438095-25.46455 3.792593-10.02328 13.274074-16.253968 16.524868-26.548148 2.708995-8.939683 0.541799-20.31746-8.668783-23.297354-5.14709-1.625397-10.835979 2.167196-15.983069 1.354497-7.314286-1.083598-15.44127-6.501587-21.130159-10.835979-7.856085-5.959788-10.835979-15.983069-19.233862-21.671958-7.043386-4.87619-12.190476-1.896296-19.775661-4.063492-7.856085-2.438095-12.732275-11.919577-19.233862-15.17037-9.481481-4.605291-14.899471 1.896296-24.922751 0.541799-8.668783-1.083598-21.671958-10.565079-29.528042-14.086772-16.253968-7.314286-26.277249-15.44127-32.778836-31.966138-5.688889-14.086772-13.815873-20.859259-23.297354-32.507937-9.752381-11.919577-12.732275-22.213757-27.631746-25.46455-1.625397-0.270899 3.521693 12.461376 4.334392 13.544974 5.417989 9.752381 13.274074 18.962963 19.775661 28.173545 9.481481 13.544974 5.417989 15.983069-4.334392 2.979894-11.106878-14.899471-23.839153-29.798942-33.320635-45.782011-3.521693-5.959788-2.979894-10.02328-8.939683-15.712169-5.688889-5.417989-13.274074-8.126984-19.233862-13.544974-20.859259-18.692063-24.651852-43.885714-22.213757-70.704762 0.812698-8.668783 4.063492-15.712169 2.438095-24.110053-1.083598-7.043386-5.14709-12.732275-10.29418-17.879365-1.625397-2.708995-5.688889-9.210582-5.959788-9.481481-4.87619-7.856085-8.397884-15.712169-15.983069-22.213757-4.334392-3.792593-15.44127-12.461376-26.006349-19.775661 47.407407-59.056085 109.172487-105.921693 180.419048-134.907937 0.541799 3.521693 2.167196 7.043386 4.334392 10.565079 5.959788 8.668783 11.377778 7.856085 22.755556 10.29418-1.354497 13.274074-16.795767 13.274074-27.089947 11.919577-12.461376-1.625397-25.73545-5.959788-36.571429 5.14709 5.959788 3.521693 22.484656 17.608466 20.31746 2.979894 11.919577-0.541799 23.568254-1.083598 35.216931 0.541799 4.605291 0.541799 20.31746 5.959788 24.651852 3.521693 1.896296-1.083598 3.792593-9.752381 5.688889-12.461376-3.250794 0-7.043386-1.625397-10.29418-1.354497 7.856085-10.02328 15.44127-2.167196 25.46455 2.438095-10.835979 6.772487-4.334392 22.484656 6.230688 9.481481 8.668783-10.565079-2.167196-18.150265-13.274074-24.380952 11.106878-14.086772 18.150265-15.17037 28.715344 0.541799 1.625397-9.752381 9.481481-5.688889 17.879365-5.14709l0-2.438095c-3.521693 0-7.585185-1.896296-11.106878-1.625397 8.397884-13.274074 2.979894-16.253968 14.899471-20.859259 9.481481-3.521693 36.571429-0.270899 40.093122-9.210582-18.962963 3.792593-41.989418 4.605291-59.056085 13.274074-7.314286 3.792593-16.253968 15.44127-23.568254 7.856085-7.585185-7.856085 5.417989-20.58836 11.919577-24.380952L419.89418 74.768254c30.069841-6.501587 61.22328-9.752381 93.189418-9.752381 20.58836 0 40.90582 1.625397 60.952381 4.334392-6.772487 3.521693-1.896296 5.959788-6.772487 9.752381-9.481481 7.043386-26.548148 13.003175-37.925926 17.337566 14.628571 0 49.574603 13.544974 56.34709-6.772487-4.605291-0.812698-9.481481-1.354497-14.086772-2.167196 8.668783-5.688889 18.421164-10.565079 28.715344-13.815873 92.37672 18.150265 174.459259 65.015873 237.037037 130.844444C836.808466 204.258201 836.266667 204.258201 835.724868 204.258201L835.724868 204.258201zM917.536508 381.426455c0.812698-1.896296 2.708995-2.438095 3.521693-3.792593 1.625397-2.979894 1.354497-5.14709 3.250794-7.856085 2.167196-2.979894 5.14709-3.521693 7.585185-5.688889 1.083598-0.812698 1.625397-1.625397 1.896296-2.438095 7.585185 20.859259 13.274074 42.260317 17.608466 64.474074 0 0.270899-0.270899 0.270899-0.270899 0.541799-1.083598 0.812698-8.126984 1.896296-9.752381 1.896296-5.14709 0.270899-8.939683-3.250794-12.732275-6.501587-3.792593-3.250794-8.126984-7.585185-10.835979-11.919577-2.979894-4.605291-1.083598-9.210582-0.812698-14.357672C917.807407 391.449735 915.640212 385.489947 917.536508 381.426455L917.536508 381.426455zM923.496296 613.045503c-8.668783-7.585185-18.962963-17.608466-25.193651-27.360847-6.501587-10.29418-2.438095-21.130159-2.167196-33.049735 0.270899-10.02328-4.605291-24.380952-0.270899-33.320635 1.896296-4.063492 6.501587-5.417989 8.397884-8.939683 3.792593-7.043386 2.979894-11.919577 7.856085-18.150265 5.14709-6.501587 12.190476-8.126984 17.879365-13.544974 5.959788-5.417989 5.959788-9.752381 9.752381-16.795767 2.708995-5.14709 9.481481-13.544974 15.44127-17.879365 3.250794 22.213757 5.14709 44.698413 5.14709 67.724868 0 39.822222-5.417989 78.289947-15.17037 115.132275C937.04127 624.965079 929.997884 619.005291 923.496296 613.045503L923.496296 613.045503zM923.496296 613.045503" p-id="3374" fill="#8a8a8a"></path></svg>