<?xml version="1.0" standalone="no"?><!DOCTYPE svg PUBLIC "-//W3C//DTD SVG 1.1//EN" "http://www.w3.org/Graphics/SVG/1.1/DTD/svg11.dtd"><svg t="1537195076864" class="icon" style="" viewBox="0 0 1024 1024" version="1.1" xmlns="http://www.w3.org/2000/svg" p-id="14890" xmlns:xlink="http://www.w3.org/1999/xlink" width="48" height="48"><defs><style type="text/css"></style></defs><path d="M424.661333 737.194667l35.328 77.866666a21.333333 21.333333 0 0 0 19.2 12.544l73.514667 0.682667a21.333333 21.333333 0 0 0 19.754667-12.8l32.682666-74.581333a64 64 0 0 1 66.048-37.888l83.541334 9.813333a21.333333 21.333333 0 0 0 20.949333-10.538667l35.754667-61.866666a21.333333 21.333333 0 0 0-1.365334-23.466667l-50.261333-67.413333a64 64 0 0 1-0.213333-76.202667l48.256-65.578667a21.333333 21.333333 0 0 0 1.194666-23.466666l-37.333333-63.317334a21.333333 21.333333 0 0 0-20.48-10.410666l-85.077333 8.362666a64 64 0 0 1-64.554667-37.248l-35.285333-77.866666a21.333333 21.333333 0 0 0-19.242667-12.544l-73.514667-0.682667a21.333333 21.333333 0 0 0-19.712 12.8L421.12 277.930667a64 64 0 0 1-66.048 37.888l-83.584-9.813334a21.333333 21.333333 0 0 0-20.949333 10.538667l-35.754667 61.866667a21.333333 21.333333 0 0 0 1.365333 23.466666L266.453333 469.333333a64 64 0 0 1 0.213334 76.202667L218.453333 611.114667a21.333333 21.333333 0 0 0-1.194666 23.466666l37.333333 63.317334a21.333333 21.333333 0 0 0 20.48 10.410666l85.077333-8.362666a64 64 0 0 1 64.554667 37.248z m-38.826666 17.621333a21.333333 21.333333 0 0 0-21.546667-12.373333l-85.077333 8.32a64 64 0 0 1-61.397334-31.146667l-37.333333-63.317333a64 64 0 0 1 3.541333-70.442667l48.298667-65.621333a21.333333 21.333333 0 0 0-0.085333-25.386667l-50.261334-67.498667a64 64 0 0 1-4.096-70.186666l35.754667-61.866667a64 64 0 0 1 62.848-31.573333l83.584 9.728a21.333333 21.333333 0 0 0 22.016-12.629334l32.682667-74.581333a64 64 0 0 1 59.221333-38.314667l73.472 0.682667a64 64 0 0 1 57.685333 37.546667l35.328 77.909333a21.333333 21.333333 0 0 0 21.504 12.373333l85.12-8.32a64 64 0 0 1 61.354667 31.146667l37.376 63.317333a64 64 0 0 1-3.584 70.442667l-48.256 65.621333a21.333333 21.333333 0 0 0 0.042667 25.386667l50.261333 67.498667a64 64 0 0 1 4.096 70.186666l-35.754667 61.866667a64 64 0 0 1-62.848 31.573333l-83.541333-9.728a21.333333 21.333333 0 0 0-22.016 12.629334l-32.682667 74.581333a64 64 0 0 1-59.264 38.314667l-73.472-0.682667a64 64 0 0 1-57.685333-37.546667l-35.328-77.909333z m125.184-123.733333c66.645333 0 120.661333-53.290667 120.661333-118.954667 0-65.664-54.016-118.912-120.661333-118.912-66.645333 0-120.661333 53.248-120.661334 118.912 0 65.706667 54.016 118.912 120.661334 118.912z m0 42.666666c-90.069333 0-163.328-72.234667-163.328-161.621333 0-89.386667 73.258667-161.578667 163.328-161.578667 90.026667 0 163.328 72.192 163.328 161.578667 0 89.386667-73.258667 161.578667-163.328 161.578667z" p-id="14891" fill="#ffffff"></path></svg>