<?xml version="1.0" standalone="no"?><!DOCTYPE svg PUBLIC "-//W3C//DTD SVG 1.1//EN" "http://www.w3.org/Graphics/SVG/1.1/DTD/svg11.dtd"><svg t="1537235954959" class="icon" style="" viewBox="0 0 1222 1024" version="1.1" xmlns="http://www.w3.org/2000/svg" p-id="6088" xmlns:xlink="http://www.w3.org/1999/xlink" width="57.28125" height="48"><defs><style type="text/css"></style></defs><path d="M1197.768173 894.994106a25.147348 25.147348 0 0 1-25.147348-25.147348V102.349705A52.05501 52.05501 0 0 0 1120.565815 50.294695H433.037328a52.05501 52.05501 0 0 0-52.05501 52.05501v177.540275a98.829077 98.829077 0 0 1-58.090373 90.027505L67.897839 484.840864a29.925344 29.925344 0 0 0-17.603144 27.159136v357.846758a25.147348 25.147348 0 0 1-50.294695 0V512a80.220039 80.220039 0 0 1 47.277014-72.927308l254.994106-114.92338a48.534381 48.534381 0 0 0 28.416503-44.259332V102.349705A102.601179 102.601179 0 0 1 433.037328 0h687.277014a102.601179 102.601179 0 0 1 102.349705 102.349705v767.497053a25.147348 25.147348 0 0 1-24.895874 25.147348z" p-id="6089" fill="#707070"></path><path d="M292.715128 1024a152.895874 152.895874 0 1 1 152.895874-154.153242 153.147348 153.147348 0 0 1-152.895874 154.153242z m0-255.497053a102.601179 102.601179 0 1 0 102.601178 101.343811 102.852652 102.852652 0 0 0-102.601178-100.589391zM999.858546 1024a152.895874 152.895874 0 1 1 152.895874-154.153242 153.147348 153.147348 0 0 1-152.895874 154.153242z m0-255.497053a102.601179 102.601179 0 1 0 102.601179 101.343811 102.852652 102.852652 0 0 0-102.601179-100.589391z" p-id="6090" fill="#707070"></path><path d="M865.068762 894.994106H419.960707a25.147348 25.147348 0 0 1 0-50.294695h445.108055a25.147348 25.147348 0 0 1 0 50.294695zM478.805501 625.666012H216.770138a25.147348 25.147348 0 0 1 0-50.294696h211.489194v-166.475442a25.147348 25.147348 0 0 1 50.294696 0z" p-id="6091" fill="#707070"></path></svg>