<?xml version="1.0" standalone="no"?><!DOCTYPE svg PUBLIC "-//W3C//DTD SVG 1.1//EN" "http://www.w3.org/Graphics/SVG/1.1/DTD/svg11.dtd"><svg t="1537236031727" class="icon" style="" viewBox="0 0 1024 1024" version="1.1" xmlns="http://www.w3.org/2000/svg" p-id="7530" xmlns:xlink="http://www.w3.org/1999/xlink" width="48" height="48"><defs><style type="text/css"></style></defs><path d="M512.001 1022.236c-68.873 0-135.696-13.494-198.613-40.104-60.761-25.7-115.326-62.487-162.179-109.341-46.853-46.853-83.64-101.417-109.34-162.178C15.258 647.695 1.765 580.873 1.765 512S15.258 376.304 41.87 313.387c25.7-60.761 62.487-115.326 109.34-162.179s101.418-83.64 162.179-109.34c62.917-26.612 129.74-40.105 198.613-40.105 68.874 0 135.696 13.493 198.612 40.105 9.789 4.14 14.368 15.433 10.228 25.222-4.14 9.79-15.433 14.368-25.222 10.228-58.146-24.594-119.924-37.064-183.618-37.064C251.88 40.255 40.256 251.879 40.256 512S251.88 983.745 512.001 983.745 983.746 772.121 983.746 512c0-102.433-32.27-199.85-93.319-281.718-6.354-8.521-4.598-20.579 3.923-26.933 8.524-6.353 20.58-4.597 26.934 3.923 32.143 43.103 57.125 90.686 74.256 141.425 17.715 52.474 26.698 107.417 26.698 163.303 0 68.873-13.493 135.695-40.104 198.613-25.7 60.761-62.487 115.325-109.341 162.178-46.853 46.854-101.417 83.641-162.178 109.341-62.919 26.61-129.741 40.104-198.614 40.104z" fill="#707070" p-id="7531"></path><path d="M709.24 466.186H314.76a20 20 0 0 1-13.978-34.304l131.993-128.993c7.9-7.72 20.563-7.575 28.282 0.325 7.72 7.899 7.575 20.562-0.325 28.282l-96.892 94.689h345.4c11.046 0 20 8.954 20 20s-8.954 20.001-20 20.001zM577.249 726.807a19.944 19.944 0 0 1-14.306-6.021c-7.721-7.899-7.574-20.562 0.325-28.282l96.892-94.69h-345.4c-11.046 0-20-8.954-20-20s8.954-20 20-20h394.48a20 20 0 0 1 13.978 34.304L591.226 721.11a19.935 19.935 0 0 1-13.977 5.697z" fill="#707070" p-id="7532"></path></svg>