<?xml version="1.0" standalone="no"?><!DOCTYPE svg PUBLIC "-//W3C//DTD SVG 1.1//EN" "http://www.w3.org/Graphics/SVG/1.1/DTD/svg11.dtd"><svg t="1537236006508" class="icon" style="" viewBox="0 0 1024 1024" version="1.1" xmlns="http://www.w3.org/2000/svg" p-id="6638" xmlns:xlink="http://www.w3.org/1999/xlink" width="48" height="48"><defs><style type="text/css"></style></defs><path d="M904.533333 740.130133V392.533333a36.932267 36.932267 0 0 0-34.133333-34.133333H119.466667a33.792 33.792 0 0 0-34.133334 34.133333v477.866667c0 19.131733 13.653333 0 34.133334 0h648.533333a98.747733 98.747733 0 0 0 6.314667 34.133333H102.4c-34.269867 0-51.2-16.605867-51.2-51.2V375.466667c0-34.474667 16.810667-51.2 51.2-51.2h785.066667c34.304 0 51.2 16.605867 51.2 51.2v384.9728a101.922133 101.922133 0 0 0-34.133334-20.309334zM341.333333 153.6a26.794667 26.794667 0 0 0-17.066666 0 52.2752 52.2752 0 0 0-17.066667 17.066667l-45.5168 136.533333H225.28l13.653333-68.266667h-17.066666c-18.602667 0-32.648533 8.021333-34.133334 17.066667l-12.8 51.2H139.946667l13.653333-68.266667c7.1168-26.862933 34.491733-34.133333 68.266667-34.133333h34.133333l17.885867-42.4448a62.788267 62.788267 0 0 1 33.024-37.0688 61.832533 61.832533 0 0 1 49.493333-1.2288L779.776 307.2H694.613333z" fill="#8a8a8a" p-id="6639"></path><path d="M819.2 819.2a17.066667 17.066667 0 1 1-17.066667 17.066667 17.066667 17.066667 0 0 1 17.066667-17.066667z m68.266667 0a17.066667 17.066667 0 1 1-17.066667 17.066667 17.066667 17.066667 0 0 1 17.066667-17.066667z m68.266666 0a17.066667 17.066667 0 1 1-17.066666 17.066667 17.066667 17.066667 0 0 1 17.066666-17.066667z" fill="#8a8a8a" p-id="6640"></path><path d="M613.307733 597.333333h-101.512533v68.0448h67.362133a17.220267 17.220267 0 1 1 0 34.423467h-67.362133V783.36A17.902933 17.902933 0 0 1 494.933333 802.133333a17.8688 17.8688 0 0 1-16.930133-18.773333V699.733333h-67.345067a17.220267 17.220267 0 1 1 0-34.423466H477.866667V597.333333h-101.393067a17.066667 17.066667 0 1 1 0-33.928533h73.0624L411.306667 484.181333a15.6672 15.6672 0 0 1 7.936-20.701866 16.264533 16.264533 0 0 1 22.186666 3.584l41.3184 85.333333a15.035733 15.035733 0 0 1 24.797867 0.836267l43.400533-93.2352a17.271467 17.271467 0 0 1 29.320534 16.9472l-40.209067 86.408533h73.2672A17.066667 17.066667 0 1 1 613.307733 597.333333z" fill="#8a8a8a" p-id="6641"></path></svg>