<?xml version="1.0" standalone="no"?><!DOCTYPE svg PUBLIC "-//W3C//DTD SVG 1.1//EN" "http://www.w3.org/Graphics/SVG/1.1/DTD/svg11.dtd"><svg t="1537147608841" class="icon" style="" viewBox="0 0 1024 1024" version="1.1" xmlns="http://www.w3.org/2000/svg" p-id="5901" xmlns:xlink="http://www.w3.org/1999/xlink" width="200" height="200"><defs><style type="text/css"></style></defs><path d="M512 1024C229.230592 1024 0 794.769408 0 512S229.230592 0 512 0s512 229.230592 512 512-229.230592 512-512 512zM170.667008 388.830208v246.339584h27.753472V520.280064h139.782144v114.889728h27.753472V388.830208h-27.753472v106.953728H198.42048V388.830208h-27.753472z m349.2864-4.830208c-36.552704 0-64.98304 12.42112-85.967872 37.261312-19.968 23.460864-29.784064 53.82144-29.784064 91.083776 0 36.916224 9.81504 67.2768 29.784064 90.738688C454.970368 627.57888 483.400704 640 519.615488 640c36.214784 0 64.98304-12.42112 85.967872-36.916224 19.63008-23.460864 29.784064-53.477376 29.784064-90.738688 0-37.6064-10.153984-67.968-29.784064-91.428864C584.598528 396.075008 555.830272 384 519.953408 384z m0 25.186304c27.753472 0 49.415168 9.315328 64.98304 28.291072 14.893056 18.630656 22.677504 43.471872 22.677504 74.867712 0 31.050752-7.784448 55.54688-22.67648 74.17856-15.568896 18.629632-37.568512 28.290048-65.321984 28.290048-27.753472 0-49.753088-9.660416-65.321984-28.981248-14.892032-18.630656-22.33856-43.12576-22.33856-73.48736 0-30.706688 7.446528-55.201792 22.33856-73.832448 15.906816-19.66592 37.906432-29.32736 65.659904-29.32736z m135.38304-20.356096v24.496128h85.291008v221.843456h27.414528V413.326336h85.291008v-24.496128H655.336448z" p-id="5902" fill="#bfbfbf"></path></svg>